<svg xmlns="http://www.w3.org/2000/svg" viewBox="0 0 64 64" width="64" height="64">
  <defs>
    <linearGradient id="grad" x1="0%" y1="0%" x2="100%" y2="100%">
      <stop offset="0%" stop-color="#ff7a45" />
      <stop offset="100%" stop-color="#ffbf66" />
    </linearGradient>
  </defs>
  <!-- Background circle with smooth corners -->
  <rect width="64" height="64" rx="16" fill="url(#grad)" />
  
  <!-- Cat Head Silhouette -->
  <path d="M18 42 C18 48, 46 48, 46 42 C46 32, 42 22, 32 22 C22 22, 18 32, 18 42 Z" fill="#ffffff" />
  
  <!-- Left Ear -->
  <path d="M20 28 L14 14 L28 23 Z" fill="#ffffff" />
  <!-- Right Ear -->
  <path d="M44 28 L50 14 L36 23 Z" fill="#ffffff" />
  
  <!-- Left Inner Ear -->
  <path d="M21 27 L17 17 L26 23 Z" fill="#ff7a45" opacity="0.65" />
  <!-- Right Inner Ear -->
  <path d="M43 27 L47 17 L38 23 Z" fill="#ff7a45" opacity="0.65" />
  
  <!-- Left Eye -->
  <circle cx="26" cy="33" r="2.5" fill="#123128" />
  <!-- Right Eye -->
  <circle cx="38" cy="33" r="2.5" fill="#123128" />
  
  <!-- Cute Nose/Mouth -->
  <path d="M32 36 L29 38 C29 39.5, 32 39.5, 32 38 C32 39.5, 35 39.5, 35 38 Z" fill="none" stroke="#ff7a45" stroke-width="1.5" stroke-linecap="round" />
  <path d="M32 35.5 L32 37.5" fill="none" stroke="#ff7a45" stroke-width="1.5" />
  <path d="M32 35 C31.5 35, 31 35.5, 32 36 C33 35.5, 32.5 35, 32 35 Z" fill="#ff7a45" />

  <!-- Whiskers -->
  <line x1="14" y1="36" x2="22" y2="37" stroke="#123128" stroke-width="1.5" stroke-linecap="round" opacity="0.3" />
  <line x1="13" y1="39" x2="21" y2="39" stroke="#123128" stroke-width="1.5" stroke-linecap="round" opacity="0.3" />
  <line x1="50" y1="36" x2="42" y2="37" stroke="#123128" stroke-width="1.5" stroke-linecap="round" opacity="0.3" />
  <line x1="51" y1="39" x2="43" y2="39" stroke="#123128" stroke-width="1.5" stroke-linecap="round" opacity="0.3" />
</svg>